<svg width="32" height="29" viewBox="0 0 32 29" fill="none" xmlns="http://www.w3.org/2000/svg">
<path d="M7.35849 9.33677C7.73713 10.0507 8.22284 10.646 8.73426 11.2697C9.43242 12.122 10.0706 12.9751 10.6591 13.9063C11.3899 15.0618 11.7111 16.372 11.5972 17.7319C11.401 19.1855 10.6343 20.5249 9.17029 21.1383C9.15401 19.9914 8.84477 18.9338 8.02753 18.1701C7.36706 17.5532 6.52497 17.3307 5.63492 17.4158L4.15121 17.7156C3.25174 17.8977 1.85027 18.0927 1.38254 17.1039C0.958503 16.2062 1.76204 15.8634 1.49648 15.1202C1.43137 14.9381 1.14611 14.7646 0.94651 14.6117C0.645828 14.3797 0.851423 13.9192 1.15039 13.7414L0.767471 13.4124C0.109569 12.8479 1.56586 12.5782 1.19065 11.8591L0.387978 11.4682C0.231212 11.3917 0.0410375 11.1168 0.00591507 10.9424C-0.0317773 10.7534 0.116422 10.4605 0.286894 10.3058C0.809447 9.83075 2.99132 7.81615 3.01017 7.23884C2.3634 7.23025 1.99162 6.70533 1.98733 6.10396C2.30686 6.4287 2.56814 6.63059 2.94849 6.63059C2.84655 5.305 3.01616 4.06188 3.54471 2.85827C3.87195 2.11171 4.17863 1.36601 4.78342 0.766357C4.272 3.89693 5.41391 6.88661 7.78253 8.86856C8.43786 9.41666 9.07435 9.91065 9.81877 10.3411C11.1337 11.1005 12.4632 11.7328 13.8279 12.4089C15.2422 13.1091 17.1628 14.152 17.8524 15.6048C18.7818 17.5653 16.9323 19.2731 15.3056 20.0609C13.9238 20.7302 12.536 21.2499 11.0832 21.7525C9.1266 22.4286 5.24429 23.89 6.15148 26.5781C6.40076 27.3169 6.87277 27.7645 7.44929 28.3109C7.01583 28.1485 6.66632 27.8908 6.32795 27.6021C5.36679 26.7843 5.17919 25.4638 5.81053 24.3547C7.56408 21.2749 13.9838 21.2955 15.1865 17.7775C15.494 16.8771 15.2071 15.9501 14.634 15.213C14.0463 14.4579 13.3713 13.8118 12.5789 13.2603L9.54722 11.1478C8.75311 10.5945 8.08064 9.9957 7.35849 9.33677Z" fill="url(#paint0_linear_995_5)"/>
<path d="M30.2446 8.42694C30.4921 8.31268 32.0949 7.80237 31.9955 7.86251C31.8182 7.96904 30.4853 9.08931 30.206 9.22934C25.2555 12.0618 20.3246 12.9123 14.8644 11.0627L17.3932 12.3573C18.434 12.89 19.3935 13.5455 20.1045 14.4621C21.0031 15.6211 20.9774 17.1348 19.9563 18.1855C19.2967 18.8642 18.4828 19.359 17.5251 19.6279C18.1856 19.0669 18.7964 18.5678 19.1339 17.8032C20.1053 15.609 18.3398 13.8702 16.6248 12.8127C14.1474 11.2843 12.3818 10.7534 9.79819 8.92694C9.15399 8.47161 8.61945 7.9467 8.07891 7.36423C6.23284 5.37283 5.40789 2.68813 5.76854 0C6.58663 3.79036 9.26878 6.34018 12.4187 8.2577C18.0922 11.6134 24.404 11.7972 30.248 8.74223C28.8037 9.2302 27.5076 9.74996 25.9922 9.9192C23.197 10.3049 20.4069 10.0249 17.7084 9.14601C14.6665 8.15546 10.612 6.10822 8.39501 3.79637C7.39102 2.74913 6.57635 1.5524 6.20885 0.0996559C7.15287 1.46907 8.22968 2.59879 9.62086 3.50686C12.4675 5.3651 15.4563 6.94069 18.631 8.17436C22.4285 9.6503 26.4505 10.1185 30.2429 8.42952L30.2446 8.42694Z" fill="url(#paint1_linear_995_5)"/>
<path d="M26.4249 12.6366C24.5779 13.4544 22.6299 13.9347 20.6854 14.0481L20.084 13.2319C23.3435 13.3496 26.3503 12.5008 29.1019 10.9115C28.3523 11.8041 27.3715 12.0713 26.4249 12.6366Z" fill="url(#paint2_linear_995_5)"/>
<path d="M8.34365 27.1683C8.39248 27.6648 8.59807 28.0171 8.89276 28.3968C8.03526 28.0781 7.63692 27.2121 7.75599 26.3074C8.0087 24.3856 10.0372 23.2688 11.7188 22.7009C10.2248 23.5635 8.1312 25.1262 8.34365 27.1683Z" fill="url(#paint3_linear_995_5)"/>
<path d="M13.958 16.2422C14.5851 17.365 13.8381 19.1838 12.5394 19.6142C13.45 18.6649 14.0411 17.6004 13.958 16.2422Z" fill="url(#paint4_linear_995_5)"/>
<defs>
<linearGradient id="paint0_linear_995_5" x1="9.05095" y1="0.766357" x2="9.05095" y2="28.3109" gradientUnits="userSpaceOnUse">
<stop stop-color="#D9B561"/>
<stop offset="0.504808" stop-color="#F1D88F"/>
<stop offset="1" stop-color="#EAC36E"/>
</linearGradient>
<linearGradient id="paint1_linear_995_5" x1="18.8428" y1="0" x2="18.8428" y2="19.6279" gradientUnits="userSpaceOnUse">
<stop stop-color="#D9B561"/>
<stop offset="0.504808" stop-color="#F1D88F"/>
<stop offset="1" stop-color="#EAC36E"/>
</linearGradient>
<linearGradient id="paint2_linear_995_5" x1="24.5929" y1="10.9115" x2="24.5929" y2="14.0481" gradientUnits="userSpaceOnUse">
<stop stop-color="#D9B561"/>
<stop offset="0.504808" stop-color="#F1D88F"/>
<stop offset="1" stop-color="#EAC36E"/>
</linearGradient>
<linearGradient id="paint3_linear_995_5" x1="9.72709" y1="22.7009" x2="9.72709" y2="28.3968" gradientUnits="userSpaceOnUse">
<stop stop-color="#D9B561"/>
<stop offset="0.504808" stop-color="#F1D88F"/>
<stop offset="1" stop-color="#EAC36E"/>
</linearGradient>
<linearGradient id="paint4_linear_995_5" x1="13.3615" y1="16.2422" x2="13.3615" y2="19.6142" gradientUnits="userSpaceOnUse">
<stop stop-color="#D9B561"/>
<stop offset="0.504808" stop-color="#F1D88F"/>
<stop offset="1" stop-color="#EAC36E"/>
</linearGradient>
</defs>
</svg>
